# xmcd CD database file
#
# Track frame offsets:
#	150
#	27307
#	47325
#	69275
#	89147
#	105840
#	125140
#	139450
#	156182
#	175437
#	197700
#	222005
#	244262
#
# Disc length: 3511 seconds
#
# Revision: 0
# Processed by: cddbd v1.5.1PL0 Copyright (c) Steve Scherf et al.
# Submitted via: CDex 1.51
#
DISCID=bb0db50d
DTITLE=田中秀典 - LONE SUBMARINE TOUR
DYEAR=2002
DGENRE=Rock
TTITLE0=愛の潜水艦
TTITLE1=Underground Movie
TTITLE2=落書きみたいな恋の歌
TTITLE3=君との遭遇
TTITLE4=リセットボタン
TTITLE5=恋のフレーバー
TTITLE6=Birth-Day-WALTZ
TTITLE7=デイジー
TTITLE8=Lady　Espresso
TTITLE9=Nothing's Gonna Change
TTITLE10=セピオ
TTITLE11=LOVE on the Earth
TTITLE12=向日葵のある風景
EXTD=YEAR: 2002
EXTT0=
EXTT1=
EXTT2=
EXTT3=
EXTT4=
EXTT5=
EXTT6=
EXTT7=
EXTT8=
EXTT9=
EXTT10=
EXTT11=
EXTT12=
PLAYORDER=
